<?xml version="1.0" encoding="utf-8"?>
<!-- Generator: Adobe Illustrator 24.3.0, SVG Export Plug-In . SVG Version: 6.00 Build 0)  -->
<svg version="1.1" id="logo-8" xmlns="http://www.w3.org/2000/svg" xmlns:xlink="http://www.w3.org/1999/xlink" x="0px" y="0px"
	 viewBox="0 0 140 30" style="enable-background:new 0 0 140 30;" xml:space="preserve">
<style type="text/css">
	.st0{fill:url(#SVGID_1_);}
	.st1{fill:url(#SVGID_2_);}
	.st2{fill:url(#SVGID_3_);}
	.st3{fill:#0FFFA3;}
</style>
<linearGradient id="SVGID_1_" gradientUnits="userSpaceOnUse" x1="12.6601" y1="20.3125" x2="28.6938" y2="20.3125">
	<stop  offset="2.717173e-07" style="stop-color:#0FFFA3"/>
	<stop  offset="1" style="stop-color:#F810FF"/>
</linearGradient>
<path class="st0" d="M22.4,13.4c-0.4,0.4-0.7,0.8-0.9,1.3c-0.2,0.5-0.2,1-0.2,1.6l0,0c0.1,0.6,0,1.3-0.2,1.9c-0.2,0.6-0.6,1.1-1,1.6
	c-0.4,0.4-1,0.8-1.6,1c-0.6,0.2-1.2,0.3-1.9,0.2l0,0c-0.8-0.1-1.5,0.1-2.2,0.5c-0.7,0.4-1.2,0.9-1.5,1.6c-0.3,0.7-0.4,1.5-0.3,2.2
	c0.1,0.7,0.5,1.4,1,2c0.5,0.5,1.2,0.9,2,1c0.7,0.1,1.5,0,2.2-0.3c0.7-0.3,1.3-0.8,1.6-1.5s0.5-1.4,0.5-2.2l0,0
	c-0.1-0.6,0-1.3,0.2-1.9c0.2-0.6,0.6-1.1,1-1.6c0.4-0.4,1-0.8,1.6-1c0.6-0.2,1.2-0.3,1.9-0.2l0,0c0.6,0.1,1.2,0,1.8-0.3
	c0.6-0.2,1.1-0.6,1.4-1.1c0.4-0.5,0.6-1.1,0.7-1.7c0.1-0.6,0-1.2-0.2-1.8c-0.2-0.6-0.6-1.1-1-1.5s-1-0.7-1.6-0.8
	c-0.6-0.1-1.2-0.1-1.8,0.1C23.4,12.6,22.9,12.9,22.4,13.4L22.4,13.4z"/>
<linearGradient id="SVGID_2_" gradientUnits="userSpaceOnUse" x1="2.9891" y1="14.972" x2="27.7159" y2="14.972">
	<stop  offset="2.717173e-07" style="stop-color:#0FFFA3"/>
	<stop  offset="1" style="stop-color:#F810FF"/>
</linearGradient>
<path class="st1" d="M15,18.6L15,18.6c0.5,0,1.1,0,1.6-0.2c0.5-0.2,1-0.5,1.3-0.9c0.4-0.4,0.7-0.8,0.9-1.3c0.2-0.5,0.2-1,0.2-1.6
	l0,0c-0.1-0.6,0-1.3,0.2-1.9c0.2-0.6,0.6-1.1,1-1.6c0.4-0.4,1-0.8,1.6-1c0.6-0.2,1.2-0.3,1.9-0.2l0,0c0.8,0.1,1.5-0.1,2.2-0.5
	c0.7-0.4,1.2-0.9,1.5-1.6c0.3-0.7,0.4-1.5,0.3-2.2c-0.1-0.7-0.5-1.4-1-2c-0.5-0.5-1.2-0.9-2-1c-0.7-0.1-1.5,0-2.2,0.3
	c-0.7,0.3-1.3,0.8-1.6,1.5c-0.4,0.7-0.5,1.4-0.5,2.2l0,0c0.1,0.6,0,1.3-0.2,1.9c-0.2,0.6-0.6,1.1-1,1.6c-0.4,0.4-1,0.8-1.6,1
	c-0.6,0.2-1.2,0.3-1.9,0.2l0,0c-0.5-0.1-1.1,0-1.6,0.2c-0.5,0.2-1,0.5-1.3,0.9c-0.4,0.4-0.7,0.8-0.9,1.3c-0.2,0.5-0.2,1-0.2,1.6l0,0
	c0.1,0.6,0,1.3-0.2,1.9c-0.2,0.6-0.6,1.1-1,1.6c-0.4,0.4-1,0.8-1.6,1C8.3,19.9,7.6,20,7,20l0,0c-0.8-0.1-1.5,0.1-2.2,0.5
	c-0.7,0.4-1.2,0.9-1.5,1.6C3,22.8,2.9,23.5,3,24.3c0.1,0.7,0.5,1.4,1,2c0.5,0.5,1.2,0.9,2,1c0.7,0.1,1.5,0,2.2-0.3
	c0.7-0.3,1.3-0.8,1.6-1.5c0.4-0.7,0.5-1.4,0.5-2.2l0,0c-0.1-0.6,0-1.3,0.2-1.9c0.2-0.6,0.6-1.1,1-1.6c0.4-0.4,1-0.8,1.6-1
	C13.8,18.7,14.4,18.6,15,18.6L15,18.6z"/>
<linearGradient id="SVGID_3_" gradientUnits="userSpaceOnUse" x1="2.0701" y1="9.6887" x2="18.101" y2="9.6887">
	<stop  offset="2.717173e-07" style="stop-color:#0FFFA3"/>
	<stop  offset="1" style="stop-color:#F810FF"/>
</linearGradient>
<path class="st2" d="M8.3,16.6c0.4-0.4,0.7-0.8,0.8-1.3c0.2-0.5,0.2-1,0.2-1.6l0,0c-0.1-0.6,0-1.3,0.2-1.9c0.2-0.6,0.6-1.1,1-1.6
	c0.4-0.4,1-0.8,1.6-1C12.8,9.1,13.5,9,14.1,9l0,0c0.8,0.1,1.5-0.1,2.2-0.5c0.7-0.4,1.2-0.9,1.5-1.6c0.3-0.7,0.4-1.5,0.3-2.2
	c-0.1-0.7-0.5-1.4-1-2s-1.2-0.9-2-1c-0.7-0.1-1.5,0-2.2,0.3c-0.7,0.3-1.3,0.8-1.6,1.5c-0.4,0.7-0.5,1.4-0.5,2.2l0,0
	c0.1,0.6,0,1.3-0.2,1.9c-0.2,0.6-0.6,1.1-1,1.6c-0.4,0.4-1,0.8-1.6,1c-0.6,0.2-1.2,0.3-1.9,0.2l0,0c-0.6-0.1-1.2,0-1.8,0.3
	s-1.1,0.6-1.4,1.1c-0.4,0.5-0.6,1.1-0.7,1.7c-0.1,0.6,0,1.2,0.2,1.8c0.2,0.6,0.6,1.1,1,1.5c0.5,0.4,1,0.7,1.6,0.8
	c0.6,0.1,1.2,0.1,1.8-0.1C7.4,17.4,7.9,17.1,8.3,16.6L8.3,16.6z"/>
<g>
	<path class="st3" d="M39.9,9.1V19h6.4v2.5h-8.9V9.1H39.9z"/>
	<path class="st3" d="M50.5,9.1c0.2,0.2,0.4,0.6,0.4,0.9c0,0.4-0.1,0.7-0.4,0.9c-0.2,0.2-0.6,0.4-0.9,0.4s-0.7-0.1-0.9-0.4
		c-0.2-0.2-0.4-0.6-0.4-0.9c0-0.4,0.1-0.7,0.4-0.9c0.2-0.2,0.6-0.4,0.9-0.4S50.3,8.8,50.5,9.1z M50.9,12v9.5h-2.5V12H50.9z"/>
	<path class="st3" d="M55.2,12l2.1,4.4l2.3-4.4h2.8l-5.2,9.9L52.4,12H55.2z"/>
	<path class="st3" d="M66.9,18.8c0.5,0.4,1.1,0.7,1.8,0.7c0.2,0,0.4,0,0.7-0.1c0.9-0.2,1.7-0.6,2.2-1.3l1.7,1.3
		c-0.8,1.3-2.1,2.1-3.9,2.3c-0.2,0-0.5,0-0.7,0c-1.5,0-2.7-0.5-3.7-1.5c-1-1-1.5-2.2-1.5-3.6c0-1.4,0.5-2.6,1.5-3.6
		c1-1,2.2-1.5,3.6-1.5c0.9,0,1.7,0.2,2.5,0.7c1.2,0.7,2,1.6,2.3,2.8L66.9,18.8z M70,14.6c-0.4-0.3-0.9-0.5-1.4-0.5
		c-0.1,0-0.1,0-0.2,0c-0.4,0-0.8,0.1-1.2,0.3c-0.9,0.5-1.3,1.2-1.3,2.3c0,0.1,0,0.2,0,0.3L70,14.6z"/>
	<path class="st3" d="M77.7,17.9c0,0.6,0.4,0.9,1.1,1.2c0.3,0.1,0.7,0.1,1.1,0.1c0.4,0,0.7,0,1.1-0.1c0.8-0.2,1.1-0.6,1.1-1.2
		c0-0.4-0.3-0.7-0.8-0.9c-0.3-0.1-0.9-0.3-1.7-0.5c-1.5-0.4-2.5-0.7-3-1.1c-0.9-0.6-1.4-1.5-1.4-2.8c0-0.9,0.3-1.7,0.8-2.3
		c0.5-0.6,1.2-1,2.1-1.2c0.6-0.2,1.1-0.3,1.8-0.3c0.6,0,1.2,0.1,1.8,0.3c0.9,0.3,1.6,0.7,2.1,1.2c0.6,0.6,0.8,1.4,0.8,2.3h-2.5
		c0-0.5-0.4-0.9-1.1-1.2c-0.3-0.1-0.7-0.1-1.1-0.1v0c-0.4,0-0.7,0.1-1.1,0.2c-0.8,0.2-1.1,0.6-1.1,1.2c0,0.4,0.3,0.7,0.8,0.9
		c0.3,0.1,0.9,0.3,1.7,0.5c1.5,0.4,2.5,0.7,3,1.1c0.9,0.6,1.4,1.5,1.4,2.8c0,0.9-0.3,1.7-0.8,2.3c-0.5,0.6-1.2,1-2.1,1.3
		c-0.6,0.2-1.1,0.3-1.8,0.3v0c-0.6,0-1.2-0.1-1.8-0.2c-0.9-0.3-1.6-0.7-2.1-1.3c-0.6-0.6-0.8-1.4-0.8-2.3H77.7z"/>
	<path class="st3" d="M91.7,11.7c1.4,0,2.6,0.5,3.6,1.5c1,1,1.5,2.2,1.5,3.6c0,1.4-0.5,2.6-1.5,3.6c-1,1-2.2,1.5-3.6,1.5
		s-2.6-0.5-3.6-1.5c-1-1-1.5-2.2-1.5-3.6c0-1.4,0.5-2.6,1.5-3.6C89.1,12.2,90.3,11.7,91.7,11.7z M89.8,14.8
		c-0.5,0.5-0.7,1.2-0.7,1.9c0,0.8,0.2,1.4,0.7,1.9c0.5,0.5,1.1,0.8,1.8,0.8c0.7,0,1.3-0.3,1.8-0.8c0.5-0.5,0.7-1.2,0.7-1.9
		c0-0.7-0.2-1.4-0.7-1.9C93,14.2,92.4,14,91.7,14C91,14,90.3,14.2,89.8,14.8z"/>
	<path class="st3" d="M105.8,18l2.1,1.2c-0.5,0.8-1.1,1.4-1.8,1.8c-0.8,0.4-1.6,0.7-2.5,0.7c-1.4,0-2.6-0.5-3.6-1.5
		c-1-1-1.5-2.2-1.5-3.6c0-1.4,0.5-2.6,1.5-3.6c1-1,2.2-1.5,3.6-1.5c0.9,0,1.7,0.2,2.5,0.7c0.8,0.4,1.4,1,1.8,1.8l-2.1,1.2
		c-0.1-0.2-0.3-0.4-0.4-0.6c-0.5-0.5-1.1-0.8-1.8-0.8c-0.7,0-1.3,0.3-1.8,0.8c-0.5,0.5-0.7,1.2-0.7,1.9c0,0.8,0.2,1.4,0.7,1.9
		c0.5,0.5,1.1,0.8,1.8,0.8c0.7,0,1.3-0.3,1.8-0.8C105.6,18.4,105.7,18.2,105.8,18z"/>
	<path class="st3" d="M112.1,9.1c0.2,0.2,0.4,0.6,0.4,0.9c0,0.4-0.1,0.7-0.4,0.9s-0.6,0.4-0.9,0.4c-0.4,0-0.7-0.1-0.9-0.4
		c-0.2-0.2-0.4-0.6-0.4-0.9c0-0.4,0.1-0.7,0.4-0.9c0.2-0.2,0.6-0.4,0.9-0.4C111.6,8.7,111.9,8.8,112.1,9.1z M112.5,12v9.5H110V12
		H112.5z"/>
	<path class="st3" d="M122.2,12.6V12h2.5v9.5h-2.5v-0.6c-0.7,0.6-1.5,0.9-2.6,0.9c-1.4,0-2.6-0.5-3.6-1.5c-1-1-1.5-2.2-1.5-3.6
		c0-1.4,0.5-2.6,1.5-3.6c1-1,2.2-1.5,3.6-1.5C120.6,11.7,121.5,12,122.2,12.6z M122.2,16.7c0-0.7-0.2-1.4-0.7-1.9
		c-0.5-0.5-1.1-0.8-1.8-0.8c-0.7,0-1.3,0.3-1.8,0.8c-0.5,0.5-0.7,1.2-0.7,1.9c0,0.8,0.2,1.4,0.7,1.9c0.5,0.5,1.1,0.8,1.8,0.8
		c0.7,0,1.3-0.3,1.8-0.8C121.9,18.1,122.2,17.5,122.2,16.7L122.2,16.7z"/>
	<path class="st3" d="M129.6,9.1v12.4h-2.5V9.1H129.6z"/>
</g>
</svg>
